<svg xmlns="http://www.w3.org/2000/svg"><rect width="642" height="482" fill="#03035F"/><path stroke="null" fill="#fff" d="M642.6 346.2v107.5L402.3 334.2v148.3H241V335.2L0 455.2V347.4L51.3 322H0V161.3h55.3L0 134V26.7l241 120V1h161.3v146.3L642.6 28v107.6l-52.5 26h53v184.6zm0-184.5V322H594l48.6 24.2V161.7z"/><path fill="#c00" stroke="#BA0000" stroke-width="2" d="M-1 423.3l204.7-101.8h-99.3l-104.6 52-.7 49.8zm0-318L111.3 161H202L-1 60v45.4zm643 313L444.2 320H546l96 47.7v50.7zm0-319.6L516.7 161H430L642 56v43zm.6 190H370v192.6h-96.5V288.8H-1v-96.3h274.5V0H370v192.5h272.6v96.3z"/></svg>